<svg xmlns="http://www.w3.org/2000/svg" viewBox="0 0 18 18" shape-rendering="crispEdges">
<rect x="5" y="2" width="1.04" height="1.04" fill="#27301f"/>
<rect x="6" y="2" width="1.04" height="1.04" fill="#27301f"/>
<rect x="7" y="2" width="1.04" height="1.04" fill="#27301f"/>
<rect x="8" y="2" width="1.04" height="1.04" fill="#27301f"/>
<rect x="9" y="2" width="1.04" height="1.04" fill="#27301f"/>
<rect x="10" y="2" width="1.04" height="1.04" fill="#27301f"/>
<rect x="11" y="2" width="1.04" height="1.04" fill="#27301f"/>
<rect x="12" y="2" width="1.04" height="1.04" fill="#27301f"/>
<rect x="3" y="3" width="1.04" height="1.04" fill="#27301f"/>
<rect x="4" y="3" width="1.04" height="1.04" fill="#27301f"/>
<rect x="5" y="3" width="1.04" height="1.04" fill="#a9bf94"/>
<rect x="6" y="3" width="1.04" height="1.04" fill="#a9bf94"/>
<rect x="7" y="3" width="1.04" height="1.04" fill="#a9bf94"/>
<rect x="8" y="3" width="1.04" height="1.04" fill="#5a7048"/>
<rect x="9" y="3" width="1.04" height="1.04" fill="#a9bf94"/>
<rect x="10" y="3" width="1.04" height="1.04" fill="#5a7048"/>
<rect x="11" y="3" width="1.04" height="1.04" fill="#a9bf94"/>
<rect x="12" y="3" width="1.04" height="1.04" fill="#a9bf94"/>
<rect x="13" y="3" width="1.04" height="1.04" fill="#27301f"/>
<rect x="14" y="3" width="1.04" height="1.04" fill="#27301f"/>
<rect x="2" y="4" width="1.04" height="1.04" fill="#27301f"/>
<rect x="3" y="4" width="1.04" height="1.04" fill="#a9bf94"/>
<rect x="4" y="4" width="1.04" height="1.04" fill="#8aa178"/>
<rect x="5" y="4" width="1.04" height="1.04" fill="#8aa178"/>
<rect x="6" y="4" width="1.04" height="1.04" fill="#8aa178"/>
<rect x="7" y="4" width="1.04" height="1.04" fill="#5a7048"/>
<rect x="8" y="4" width="1.04" height="1.04" fill="#5a7048"/>
<rect x="9" y="4" width="1.04" height="1.04" fill="#5a7048"/>
<rect x="10" y="4" width="1.04" height="1.04" fill="#5a7048"/>
<rect x="11" y="4" width="1.04" height="1.04" fill="#5a7048"/>
<rect x="12" y="4" width="1.04" height="1.04" fill="#8aa178"/>
<rect x="13" y="4" width="1.04" height="1.04" fill="#8aa178"/>
<rect x="14" y="4" width="1.04" height="1.04" fill="#a9bf94"/>
<rect x="15" y="4" width="1.04" height="1.04" fill="#27301f"/>
<rect x="1" y="5" width="1.04" height="1.04" fill="#27301f"/>
<rect x="2" y="5" width="1.04" height="1.04" fill="#8aa178"/>
<rect x="3" y="5" width="1.04" height="1.04" fill="#8aa178"/>
<rect x="4" y="5" width="1.04" height="1.04" fill="#8aa178"/>
<rect x="5" y="5" width="1.04" height="1.04" fill="#8aa178"/>
<rect x="6" y="5" width="1.04" height="1.04" fill="#8aa178"/>
<rect x="7" y="5" width="1.04" height="1.04" fill="#8aa178"/>
<rect x="8" y="5" width="1.04" height="1.04" fill="#5a7048"/>
<rect x="9" y="5" width="1.04" height="1.04" fill="#8aa178"/>
<rect x="10" y="5" width="1.04" height="1.04" fill="#5a7048"/>
<rect x="11" y="5" width="1.04" height="1.04" fill="#8aa178"/>
<rect x="12" y="5" width="1.04" height="1.04" fill="#8aa178"/>
<rect x="13" y="5" width="1.04" height="1.04" fill="#8aa178"/>
<rect x="14" y="5" width="1.04" height="1.04" fill="#8aa178"/>
<rect x="15" y="5" width="1.04" height="1.04" fill="#8aa178"/>
<rect x="16" y="5" width="1.04" height="1.04" fill="#27301f"/>
<rect x="1" y="6" width="1.04" height="1.04" fill="#27301f"/>
<rect x="2" y="6" width="1.04" height="1.04" fill="#8aa178"/>
<rect x="3" y="6" width="1.04" height="1.04" fill="#8aa178"/>
<rect x="4" y="6" width="1.04" height="1.04" fill="#8aa178"/>
<rect x="5" y="6" width="1.04" height="1.04" fill="#8aa178"/>
<rect x="6" y="6" width="1.04" height="1.04" fill="#8aa178"/>
<rect x="7" y="6" width="1.04" height="1.04" fill="#8aa178"/>
<rect x="8" y="6" width="1.04" height="1.04" fill="#8aa178"/>
<rect x="9" y="6" width="1.04" height="1.04" fill="#8aa178"/>
<rect x="10" y="6" width="1.04" height="1.04" fill="#8aa178"/>
<rect x="11" y="6" width="1.04" height="1.04" fill="#8aa178"/>
<rect x="12" y="6" width="1.04" height="1.04" fill="#8aa178"/>
<rect x="13" y="6" width="1.04" height="1.04" fill="#8aa178"/>
<rect x="14" y="6" width="1.04" height="1.04" fill="#8aa178"/>
<rect x="15" y="6" width="1.04" height="1.04" fill="#8aa178"/>
<rect x="16" y="6" width="1.04" height="1.04" fill="#27301f"/>
<rect x="1" y="7" width="1.04" height="1.04" fill="#27301f"/>
<rect x="2" y="7" width="1.04" height="1.04" fill="#8aa178"/>
<rect x="3" y="7" width="1.04" height="1.04" fill="#8aa178"/>
<rect x="4" y="7" width="1.04" height="1.04" fill="#8aa178"/>
<rect x="5" y="7" width="1.04" height="1.04" fill="#8aa178"/>
<rect x="6" y="7" width="1.04" height="1.04" fill="#8aa178"/>
<rect x="7" y="7" width="1.04" height="1.04" fill="#8aa178"/>
<rect x="8" y="7" width="1.04" height="1.04" fill="#8aa178"/>
<rect x="9" y="7" width="1.04" height="1.04" fill="#8aa178"/>
<rect x="10" y="7" width="1.04" height="1.04" fill="#8aa178"/>
<rect x="11" y="7" width="1.04" height="1.04" fill="#8aa178"/>
<rect x="12" y="7" width="1.04" height="1.04" fill="#8aa178"/>
<rect x="13" y="7" width="1.04" height="1.04" fill="#8aa178"/>
<rect x="14" y="7" width="1.04" height="1.04" fill="#8aa178"/>
<rect x="15" y="7" width="1.04" height="1.04" fill="#8aa178"/>
<rect x="16" y="7" width="1.04" height="1.04" fill="#27301f"/>
<rect x="1" y="8" width="1.04" height="1.04" fill="#27301f"/>
<rect x="2" y="8" width="1.04" height="1.04" fill="#8aa178"/>
<rect x="3" y="8" width="1.04" height="1.04" fill="#8aa178"/>
<rect x="4" y="8" width="1.04" height="1.04" fill="#8aa178"/>
<rect x="5" y="8" width="1.04" height="1.04" fill="#8aa178"/>
<rect x="6" y="8" width="1.04" height="1.04" fill="#8aa178"/>
<rect x="7" y="8" width="1.04" height="1.04" fill="#8aa178"/>
<rect x="8" y="8" width="1.04" height="1.04" fill="#1d2517"/>
<rect x="9" y="8" width="1.04" height="1.04" fill="#dfe6d3"/>
<rect x="10" y="8" width="1.04" height="1.04" fill="#8aa178"/>
<rect x="11" y="8" width="1.04" height="1.04" fill="#8aa178"/>
<rect x="12" y="8" width="1.04" height="1.04" fill="#8aa178"/>
<rect x="13" y="8" width="1.04" height="1.04" fill="#1d2517"/>
<rect x="14" y="8" width="1.04" height="1.04" fill="#dfe6d3"/>
<rect x="15" y="8" width="1.04" height="1.04" fill="#8aa178"/>
<rect x="16" y="8" width="1.04" height="1.04" fill="#27301f"/>
<rect x="0" y="9" width="1.04" height="1.04" fill="#27301f"/>
<rect x="1" y="9" width="1.04" height="1.04" fill="#8aa178"/>
<rect x="2" y="9" width="1.04" height="1.04" fill="#8aa178"/>
<rect x="3" y="9" width="1.04" height="1.04" fill="#8aa178"/>
<rect x="4" y="9" width="1.04" height="1.04" fill="#8aa178"/>
<rect x="5" y="9" width="1.04" height="1.04" fill="#8aa178"/>
<rect x="6" y="9" width="1.04" height="1.04" fill="#8aa178"/>
<rect x="7" y="9" width="1.04" height="1.04" fill="#8aa178"/>
<rect x="8" y="9" width="1.04" height="1.04" fill="#1d2517"/>
<rect x="9" y="9" width="1.04" height="1.04" fill="#1d2517"/>
<rect x="10" y="9" width="1.04" height="1.04" fill="#8aa178"/>
<rect x="11" y="9" width="1.04" height="1.04" fill="#8aa178"/>
<rect x="12" y="9" width="1.04" height="1.04" fill="#8aa178"/>
<rect x="13" y="9" width="1.04" height="1.04" fill="#1d2517"/>
<rect x="14" y="9" width="1.04" height="1.04" fill="#1d2517"/>
<rect x="15" y="9" width="1.04" height="1.04" fill="#8aa178"/>
<rect x="16" y="9" width="1.04" height="1.04" fill="#27301f"/>
<rect x="0" y="10" width="1.04" height="1.04" fill="#27301f"/>
<rect x="1" y="10" width="1.04" height="1.04" fill="#8aa178"/>
<rect x="2" y="10" width="1.04" height="1.04" fill="#8aa178"/>
<rect x="3" y="10" width="1.04" height="1.04" fill="#8aa178"/>
<rect x="4" y="10" width="1.04" height="1.04" fill="#8aa178"/>
<rect x="5" y="10" width="1.04" height="1.04" fill="#8aa178"/>
<rect x="6" y="10" width="1.04" height="1.04" fill="#8aa178"/>
<rect x="7" y="10" width="1.04" height="1.04" fill="#8aa178"/>
<rect x="8" y="10" width="1.04" height="1.04" fill="#1d2517"/>
<rect x="9" y="10" width="1.04" height="1.04" fill="#1d2517"/>
<rect x="10" y="10" width="1.04" height="1.04" fill="#8aa178"/>
<rect x="11" y="10" width="1.04" height="1.04" fill="#8aa178"/>
<rect x="12" y="10" width="1.04" height="1.04" fill="#8aa178"/>
<rect x="13" y="10" width="1.04" height="1.04" fill="#1d2517"/>
<rect x="14" y="10" width="1.04" height="1.04" fill="#1d2517"/>
<rect x="15" y="10" width="1.04" height="1.04" fill="#8aa178"/>
<rect x="16" y="10" width="1.04" height="1.04" fill="#27301f"/>
<rect x="1" y="11" width="1.04" height="1.04" fill="#27301f"/>
<rect x="2" y="11" width="1.04" height="1.04" fill="#8aa178"/>
<rect x="3" y="11" width="1.04" height="1.04" fill="#8aa178"/>
<rect x="4" y="11" width="1.04" height="1.04" fill="#8aa178"/>
<rect x="5" y="11" width="1.04" height="1.04" fill="#8aa178"/>
<rect x="6" y="11" width="1.04" height="1.04" fill="#b18a80"/>
<rect x="7" y="11" width="1.04" height="1.04" fill="#b18a80"/>
<rect x="8" y="11" width="1.04" height="1.04" fill="#8aa178"/>
<rect x="9" y="11" width="1.04" height="1.04" fill="#8aa178"/>
<rect x="10" y="11" width="1.04" height="1.04" fill="#8aa178"/>
<rect x="11" y="11" width="1.04" height="1.04" fill="#8aa178"/>
<rect x="12" y="11" width="1.04" height="1.04" fill="#8aa178"/>
<rect x="13" y="11" width="1.04" height="1.04" fill="#8aa178"/>
<rect x="14" y="11" width="1.04" height="1.04" fill="#b18a80"/>
<rect x="15" y="11" width="1.04" height="1.04" fill="#b18a80"/>
<rect x="16" y="11" width="1.04" height="1.04" fill="#27301f"/>
<rect x="1" y="12" width="1.04" height="1.04" fill="#27301f"/>
<rect x="2" y="12" width="1.04" height="1.04" fill="#8aa178"/>
<rect x="3" y="12" width="1.04" height="1.04" fill="#8aa178"/>
<rect x="4" y="12" width="1.04" height="1.04" fill="#8aa178"/>
<rect x="5" y="12" width="1.04" height="1.04" fill="#8aa178"/>
<rect x="6" y="12" width="1.04" height="1.04" fill="#b18a80"/>
<rect x="7" y="12" width="1.04" height="1.04" fill="#b18a80"/>
<rect x="8" y="12" width="1.04" height="1.04" fill="#8aa178"/>
<rect x="9" y="12" width="1.04" height="1.04" fill="#8aa178"/>
<rect x="10" y="12" width="1.04" height="1.04" fill="#8aa178"/>
<rect x="11" y="12" width="1.04" height="1.04" fill="#1d2517"/>
<rect x="12" y="12" width="1.04" height="1.04" fill="#1d2517"/>
<rect x="13" y="12" width="1.04" height="1.04" fill="#8aa178"/>
<rect x="14" y="12" width="1.04" height="1.04" fill="#b18a80"/>
<rect x="15" y="12" width="1.04" height="1.04" fill="#b18a80"/>
<rect x="16" y="12" width="1.04" height="1.04" fill="#27301f"/>
<rect x="1" y="13" width="1.04" height="1.04" fill="#27301f"/>
<rect x="2" y="13" width="1.04" height="1.04" fill="#6d8a5e"/>
<rect x="3" y="13" width="1.04" height="1.04" fill="#8aa178"/>
<rect x="4" y="13" width="1.04" height="1.04" fill="#8aa178"/>
<rect x="5" y="13" width="1.04" height="1.04" fill="#8aa178"/>
<rect x="6" y="13" width="1.04" height="1.04" fill="#8aa178"/>
<rect x="7" y="13" width="1.04" height="1.04" fill="#8aa178"/>
<rect x="8" y="13" width="1.04" height="1.04" fill="#8aa178"/>
<rect x="9" y="13" width="1.04" height="1.04" fill="#8aa178"/>
<rect x="10" y="13" width="1.04" height="1.04" fill="#8aa178"/>
<rect x="11" y="13" width="1.04" height="1.04" fill="#8aa178"/>
<rect x="12" y="13" width="1.04" height="1.04" fill="#8aa178"/>
<rect x="13" y="13" width="1.04" height="1.04" fill="#8aa178"/>
<rect x="14" y="13" width="1.04" height="1.04" fill="#8aa178"/>
<rect x="15" y="13" width="1.04" height="1.04" fill="#6d8a5e"/>
<rect x="16" y="13" width="1.04" height="1.04" fill="#27301f"/>
<rect x="2" y="14" width="1.04" height="1.04" fill="#27301f"/>
<rect x="3" y="14" width="1.04" height="1.04" fill="#6d8a5e"/>
<rect x="4" y="14" width="1.04" height="1.04" fill="#8aa178"/>
<rect x="5" y="14" width="1.04" height="1.04" fill="#8aa178"/>
<rect x="6" y="14" width="1.04" height="1.04" fill="#8aa178"/>
<rect x="7" y="14" width="1.04" height="1.04" fill="#8aa178"/>
<rect x="8" y="14" width="1.04" height="1.04" fill="#8aa178"/>
<rect x="9" y="14" width="1.04" height="1.04" fill="#8aa178"/>
<rect x="10" y="14" width="1.04" height="1.04" fill="#8aa178"/>
<rect x="11" y="14" width="1.04" height="1.04" fill="#8aa178"/>
<rect x="12" y="14" width="1.04" height="1.04" fill="#8aa178"/>
<rect x="13" y="14" width="1.04" height="1.04" fill="#8aa178"/>
<rect x="14" y="14" width="1.04" height="1.04" fill="#6d8a5e"/>
<rect x="15" y="14" width="1.04" height="1.04" fill="#27301f"/>
<rect x="3" y="15" width="1.04" height="1.04" fill="#27301f"/>
<rect x="4" y="15" width="1.04" height="1.04" fill="#27301f"/>
<rect x="5" y="15" width="1.04" height="1.04" fill="#6d8a5e"/>
<rect x="6" y="15" width="1.04" height="1.04" fill="#6d8a5e"/>
<rect x="7" y="15" width="1.04" height="1.04" fill="#6d8a5e"/>
<rect x="8" y="15" width="1.04" height="1.04" fill="#6d8a5e"/>
<rect x="9" y="15" width="1.04" height="1.04" fill="#6d8a5e"/>
<rect x="10" y="15" width="1.04" height="1.04" fill="#6d8a5e"/>
<rect x="11" y="15" width="1.04" height="1.04" fill="#6d8a5e"/>
<rect x="12" y="15" width="1.04" height="1.04" fill="#6d8a5e"/>
<rect x="13" y="15" width="1.04" height="1.04" fill="#27301f"/>
<rect x="14" y="15" width="1.04" height="1.04" fill="#27301f"/>
<rect x="5" y="16" width="1.04" height="1.04" fill="#27301f"/>
<rect x="6" y="16" width="1.04" height="1.04" fill="#27301f"/>
<rect x="7" y="16" width="1.04" height="1.04" fill="#27301f"/>
<rect x="8" y="16" width="1.04" height="1.04" fill="#27301f"/>
<rect x="9" y="16" width="1.04" height="1.04" fill="#27301f"/>
<rect x="10" y="16" width="1.04" height="1.04" fill="#27301f"/>
<rect x="11" y="16" width="1.04" height="1.04" fill="#27301f"/>
<rect x="12" y="16" width="1.04" height="1.04" fill="#27301f"/>
</svg>
